<svg width="120" height="65" viewBox="0 0 120 65" fill="none" xmlns="http://www.w3.org/2000/svg">
<path fill-rule="evenodd" clip-rule="evenodd" d="M89.5488 28.002C91.4241 28.002 92.9496 26.4538 92.9496 24.5508C92.9496 22.7345 91.3922 21.2004 89.5488 21.2004M89.5493 19.7246C92.2382 19.7246 94.4258 21.8894 94.4258 24.5506C94.4258 27.2673 92.2382 29.4775 89.5493 29.4775C86.8146 29.4775 84.6729 27.3133 84.6729 24.5506C84.6729 21.8894 86.8604 19.7246 89.5493 19.7246Z" fill="#1DAAFC"/>
<path fill-rule="evenodd" clip-rule="evenodd" d="M114.491 52.918C117.581 52.918 120 55.3591 120 58.3936C120 61.2969 117.581 63.7376 114.491 63.7376C111.469 63.7376 108.983 61.2969 108.983 58.3936C108.983 55.3591 111.469 52.918 114.491 52.918Z" fill="#FC3E6B"/>
<path d="M0 63.8266H13.5263C23.3969 63.8266 26.8089 60.4751 26.8089 53.1629V45.485C26.8089 40.5492 24.6154 37.5024 18.096 36.8321C23.4578 36.1618 25.1638 33.6635 25.1638 29.8245V23.7919C25.1638 16.9062 22.0564 14.1641 13.5263 14.1641H0V63.8266ZM12.7952 21.6591C15.1105 21.6591 16.0853 22.4513 16.0853 25.9856V29.8855C16.0853 33.4807 15.1105 34.2728 12.7952 34.2728H9.07847V21.6591H12.7952ZM13.5263 41.4632C16.4509 41.4632 17.6695 42.3163 17.6695 46.2771V51.2129C17.6695 55.3565 16.4509 56.3315 13.5263 56.3315H9.07847V41.4632H13.5263Z" fill="#0B0B0B"/>
<path d="M38.8547 31.7135C38.8547 28.7277 39.7077 27.8136 42.4495 27.8136C45.4351 27.8136 46.349 28.7886 46.349 32.6885V36.8321C39.8296 38.6602 29.0451 37.1368 29.0451 48.4099V54.0769C29.0451 61.2064 31.8478 64.1313 37.8189 64.1313C43.79 64.1313 46.349 61.4501 46.349 54.8691V63.8266H55.4884V31.8354C55.4884 22.8169 51.8936 19.6483 42.6932 19.6483C33.5538 19.6483 29.7153 22.8169 29.7153 30.6167V35.004H38.8547V31.7135ZM38.0626 53.041V47.6787C38.0626 44.0225 41.17 43.7788 46.349 42.7429V53.2238C46.349 56.3925 44.9476 57.3674 41.4746 57.3674C39.1593 57.3674 38.0626 56.2096 38.0626 53.041Z" fill="#0B0B0B"/>
<path d="M57.923 63.8266H82.112V55.6612H69.0122L82.112 25.4981V19.9529H58.7761V28.1183H71.5103L57.923 58.2815V63.8266Z" fill="#0B0B0B"/>
<path d="M96.7576 63.8266H105.836V14.1641H96.7576V63.8266Z" fill="#0B0B0B"/>
<path d="M84.9834 63.7377H94.0326V32.6558H84.9834V63.7377Z" fill="#0B0B0B"/>
<path fill-rule="evenodd" clip-rule="evenodd" d="M12.7562 5.5081C12.7562 3.3899 10.9956 1.66673 8.83162 1.66673C6.76628 1.66673 5.02179 3.4259 5.02179 5.5081C5.02179 7.6263 6.73104 9.34946 8.83162 9.34946C11.0322 9.34946 12.7562 7.6623 12.7562 5.5081ZM3.34375 5.5082C3.34375 2.47092 5.80544 1.54642e-05 8.83162 1.54642e-05C11.9209 1.54642e-05 14.4343 2.47092 14.4343 5.5082C14.4343 8.59716 11.9733 11.0164 8.83162 11.0164C5.80544 11.0164 3.34375 8.54549 3.34375 5.5082Z" fill="#FDA228"/>
<path fill-rule="evenodd" clip-rule="evenodd" d="M17.6001 5.50808C17.6001 3.38988 15.8395 1.66672 13.6755 1.66672C11.6102 1.66672 9.86569 3.42588 9.86569 5.50808C9.86569 7.62628 11.5749 9.34945 13.6755 9.34945C15.8761 9.34945 17.6001 7.66229 17.6001 5.50808ZM8.18765 5.50819C8.18765 2.4709 10.6493 0 13.6755 0C16.7648 0 19.2782 2.4709 19.2782 5.50819C19.2782 8.59715 16.8172 11.0164 13.6755 11.0164C10.6493 11.0164 8.18765 8.54548 8.18765 5.50819Z" fill="#FDA228"/>
</svg>
